<svg id="Layer_1" data-name="Layer 1" xmlns="http://www.w3.org/2000/svg" viewBox="0 0 525.1 153.71"><defs><style>.cls-1{fill:#fff;}</style></defs><title>logo_certimint_white</title><path class="cls-1" d="M196.47,54.55a24.54,24.54,0,0,1,8.67,14.53h-13.7a12.59,12.59,0,0,0-4.65-5.83,13.05,13.05,0,0,0-7.46-2.12,11.38,11.38,0,0,0-9.16,4.16q-3.48,4.17-3.48,11.13t3.48,11.09a11.4,11.4,0,0,0,9.16,4.12,13,13,0,0,0,7.46-2.12,12.63,12.63,0,0,0,4.65-5.75h13.7a24.7,24.7,0,0,1-8.67,14.5q-6.69,5.4-16.91,5.41a26.63,26.63,0,0,1-13.7-3.45,23.27,23.27,0,0,1-9.12-9.65,30.2,30.2,0,0,1-3.22-14.15,30.2,30.2,0,0,1,3.22-14.15,23.27,23.27,0,0,1,9.12-9.65,26.63,26.63,0,0,1,13.7-3.45Q189.78,49.17,196.47,54.55Z"/><path class="cls-1" d="M252.14,84.44H222.85c.15,3.18,1,5.47,2.42,6.85a7.81,7.81,0,0,0,5.6,2.08,7.64,7.64,0,0,0,4.77-1.43,6.78,6.78,0,0,0,2.5-3.71h13.7a17.87,17.87,0,0,1-3.64,8,19.26,19.26,0,0,1-7.11,5.53,24.32,24.32,0,0,1-20.62-.61,18.57,18.57,0,0,1-7.53-7.53,23.31,23.31,0,0,1-2.73-11.5,23.64,23.64,0,0,1,2.69-11.55,18.42,18.42,0,0,1,7.53-7.49,24.87,24.87,0,0,1,22.1,0,18.22,18.22,0,0,1,7.38,7.23A21.56,21.56,0,0,1,252.52,81,18,18,0,0,1,252.14,84.44ZM237.19,72.75a8.2,8.2,0,0,0-5.71-2.08,8.5,8.5,0,0,0-5.91,2.12,8.86,8.86,0,0,0-2.64,6.2h16.5Q239.51,74.84,237.19,72.75Z"/><path class="cls-1" d="M278.44,62.8a15.89,15.89,0,0,1,8.29-2.27V74.38H283q-5.14,0-8,2.19T272.2,84v19.22H259.25V61H272.2v8A18.2,18.2,0,0,1,278.44,62.8Z"/><path class="cls-1" d="M316.09,92.09v11.12h-5.82q-7.42,0-11.55-3.67T294.6,87.39V71.88h-5.68V61h5.68V50.61h12.94V61H316v10.9h-8.48V87.62a4.73,4.73,0,0,0,1,3.48,4.86,4.86,0,0,0,3.44,1Z"/><path class="cls-1" d="M324.27,44.22a9.09,9.09,0,0,1,11.2,0,6.31,6.31,0,0,1,2.12,4.88,6.22,6.22,0,0,1-2.12,4.8,9.09,9.09,0,0,1-11.2,0,6.22,6.22,0,0,1-2.12-4.8A6.31,6.31,0,0,1,324.27,44.22ZM336.3,61v42.23H323.36V61Z"/><path class="cls-1" d="M405.4,50.08v53.13H392.46V70L381,103.21H369.75l-11.58-33.3v33.3H345.23V50.08h15.82l14.46,37,14.15-37Z"/><path class="cls-1" d="M415.24,44.22a9.1,9.1,0,0,1,11.21,0,6.3,6.3,0,0,1,2.11,4.88,6.21,6.21,0,0,1-2.11,4.8,9.1,9.1,0,0,1-11.21,0,6.22,6.22,0,0,1-2.12-4.8A6.31,6.31,0,0,1,415.24,44.22Zm12,16.76v42.23H414.34V61Z"/><path class="cls-1" d="M474.54,65.37q4.29,4.84,4.28,13.32v24.52H465.88v-23a9.32,9.32,0,0,0-2.24-6.63,7.74,7.74,0,0,0-5.94-2.38,8.07,8.07,0,0,0-6.24,2.5q-2.31,2.49-2.31,7.11v22.4H436.21V61h12.94V68.7a14,14,0,0,1,5.41-6A15.91,15.91,0,0,1,463,60.53Q470.26,60.53,474.54,65.37Z"/><path class="cls-1" d="M511.29,92.09v11.12h-5.83q-7.43,0-11.54-3.67t-4.13-12.15V71.88h-5.67V61h5.67V50.61h12.94V61h8.48v10.9h-8.48V87.62a4.73,4.73,0,0,0,1,3.48,4.89,4.89,0,0,0,3.45,1Z"/><path class="cls-1" d="M62.35,115.54a121.22,121.22,0,0,1-27.16,12.77,4.81,4.81,0,0,1-3.82-.36,4.4,4.4,0,0,1-2.25-4.25A4.45,4.45,0,0,1,32.17,120c24.36-8,45.18-23.14,54.69-45.19C91.94,63,82.24,54.54,72.22,54.54A16.25,16.25,0,0,0,56.9,64.84c-5.62,13-19.77,23.36-38.72,28.64a4.46,4.46,0,0,1-5.7-4.12,4.55,4.55,0,0,1,3.36-4.44C32.06,80.41,44,72,48.52,61.41a25.35,25.35,0,0,1,23.7-15.72c8.67,0,16.88,4.13,21.41,10.78,4.34,6.35,4.91,14.07,1.6,21.73A77.73,77.73,0,0,1,81.59,99.37,93.92,93.92,0,0,1,62.35,115.54Zm-42.61-3.13c24.36-5.75,47.63-19.13,57.31-41.56a4.4,4.4,0,0,0-2.43-5.8,4.59,4.59,0,0,0-6,2.37c-7.43,17.22-26.2,30.5-50.93,36.35a4.44,4.44,0,1,0,2,8.64ZM129,118.84a4.2,4.2,0,0,0,1.46-4,4.29,4.29,0,0,0-2.73-3.26c-4.23-1.62-9.38-4.1-12.07-8.28-3.2-5-2-11.66-.6-19.37,2-10.83,4.39-24.31-5.33-37.91-7-9.77-18.33-16.14-31.16-17.49A47.29,47.29,0,0,0,41.91,40.4c-4.34,3.92-6.83,8.09-9,11.77C29.42,58,26.5,62.83,16.65,66a4.43,4.43,0,1,0,2.77,8.41c13.2-4.22,17.31-11.09,21.31-17.78,2.07-3.46,4-6.71,7.37-9.75a38.12,38.12,0,0,1,29.51-9.51c10.2,1.07,19.19,6.08,24.67,13.74,7.58,10.61,5.67,21.14,3.84,31.32-1.58,8.71-3.2,17.72,1.85,25.59,3,4.74,8.23,8.56,15.92,11.63A5.11,5.11,0,0,0,129,118.84Zm-61.77,6.39c-2.09,1.18-4.67,2.65-8,4.32a4.41,4.41,0,0,0-2.44,4.66,4.51,4.51,0,0,0,3.82,3.69,4.41,4.41,0,0,0,2.65-.41c2.22-1.09,4.12-2.11,5.77-3,6.55-3.63,7.16-3.7,13.37.76l2.45,1.71a4.69,4.69,0,0,0,3.38.72,4.49,4.49,0,0,0,3.67-3.42A4.37,4.37,0,0,0,90,129.65c-2.64-1.77-4.59-3.28-6.06-4.43C77.85,120.49,75.81,120.35,67.24,125.23ZM20.59,46.07A4,4,0,0,0,26.27,45L29,41C39.86,25.75,59.08,18.26,80.4,21c20.26,2.6,36.9,13.89,42.38,28.77,4.86,13.19,2.94,23.84,1.39,32.4-1.32,7.39-2.48,13.78,1.55,18.9a16,16,0,0,0,7.17,4.9,4.37,4.37,0,0,0,6-4,4.72,4.72,0,0,0-3-4.35,6.82,6.82,0,0,1-2.92-1.92c-1.61-2-.81-6.43.19-12,1.64-9.09,3.88-21.53-1.79-36.93-6.63-18-26.16-31.53-49.76-34.55A75.63,75.63,0,0,0,72,11.59c-17.3,0-34.11,6.08-46,18.93a32.85,32.85,0,0,0-6.63,9.71C18.17,42.86,18.63,44.77,20.59,46.07Zm74.65,61.85a4.61,4.61,0,0,0-6.19-1.66,4.36,4.36,0,0,0-1.71,6c4.13,7.09,10.58,13.06,19.43,18a4.68,4.68,0,0,0,4.28.13h0a4.35,4.35,0,0,0,.23-7.78C103.9,118.52,98.58,113.63,95.24,107.92Z"/></svg>